<?xml version="1.0" standalone="no"?>
<!DOCTYPE svg PUBLIC "-//W3C//DTD SVG 20010904//EN"
 "http://www.w3.org/TR/2001/REC-SVG-20010904/DTD/svg10.dtd">
<svg version="1.0" xmlns="http://www.w3.org/2000/svg"
 width="256.000000pt" height="256.000000pt" viewBox="0 0 256.000000 256.000000"
 preserveAspectRatio="xMidYMid meet">
<metadata>
Created by potrace 1.10, written by Peter Selinger 2001-2011
</metadata>
<g transform="translate(0.000000,256.000000) scale(0.100000,-0.100000)"
fill="#ffffff" stroke="none">
<path d="M196 2209 l-26 -20 0 -413 c0 -381 1 -414 18 -428 9 -8 25 -18 34
-21 9 -3 18 -16 21 -29 4 -19 4 -20 6 -3 1 19 7 20 180 17 118 -2 187 1 200 8
25 13 29 -4 5 -18 -14 -8 -12 -10 9 -14 29 -6 50 4 53 24 1 7 3 18 4 23 7 30
-2 35 -20 14 -10 -13 -19 -19 -20 -12 0 7 23 110 51 230 29 120 55 231 58 247
l6 28 132 2 c72 0 130 -1 128 -4 -2 -3 0 -12 5 -20 10 -16 40 -23 40 -9 0 6 3
8 8 6 4 -3 6 51 4 119 -4 149 -22 160 -22 13 0 -54 -3 -99 -7 -99 -5 0 -6 61
-3 135 3 74 2 135 -2 135 -5 0 -8 5 -8 11 0 22 25 1 32 -27 7 -29 7 -29 4 4
-1 17 1 32 6 32 5 0 6 5 3 10 -4 6 -15 8 -26 5 -14 -5 -20 0 -25 22 -13 55 3
53 -424 53 -387 0 -398 -1 -424 -21z m818 -35 c13 -13 16 -42 16 -160 l0 -144
-138 0 -138 0 -59 -262 -60 -263 -207 0 c-179 0 -210 2 -224 16 -14 15 -16 60
-18 404 l-1 387 24 19 c22 18 44 19 406 19 335 0 386 -2 399 -16z"/>
<path d="M227 2154 c-4 -4 -7 -14 -7 -23 0 -11 3 -12 11 -4 6 6 10 16 7 23 -2
6 -7 8 -11 4z"/>
<path d="M268 2153 c7 -3 16 -2 19 1 4 3 -2 6 -13 5 -11 0 -14 -3 -6 -6z"/>
<path d="M473 2153 c9 -2 23 -2 30 0 6 3 -1 5 -18 5 -16 0 -22 -2 -12 -5z"/>
<path d="M524 2152 c5 -8 66 -4 66 4 0 2 -16 4 -36 4 -19 0 -33 -4 -30 -8z"/>
<path d="M673 2153 c9 -2 23 -2 30 0 6 3 -1 5 -18 5 -16 0 -22 -2 -12 -5z"/>
<path d="M791 2156 c9 -9 169 -14 169 -5 0 5 -39 9 -87 9 -47 0 -84 -2 -82 -4z"/>
<path d="M978 2040 l3 -120 -65 0 c-36 0 -67 -3 -69 -7 -3 -5 29 -8 71 -8 l77
0 0 124 c0 74 -4 126 -10 128 -6 2 -9 -40 -7 -117z"/>
<path d="M444 1992 c-73 -38 -174 -114 -174 -132 0 -8 15 0 38 22 43 41 118
92 149 102 11 4 27 13 33 21 16 19 15 19 -46 -13z"/>
<path d="M755 1910 c-3 -6 1 -7 9 -4 18 7 21 14 7 14 -6 0 -13 -4 -16 -10z"/>
<path d="M706 1868 c-3 -13 -6 -34 -5 -48 l0 -25 10 23 c14 35 19 72 10 72 -5
0 -11 -10 -15 -22z"/>
<path d="M223 1821 c-16 -26 -16 -426 1 -439 6 -5 97 -9 202 -9 l191 0 32 141
c17 78 31 150 31 161 -1 19 -1 19 -11 2 -6 -10 -12 -28 -13 -40 -2 -12 -6 -29
-9 -37 -2 -8 -10 -42 -17 -75 -7 -33 -15 -67 -18 -75 -3 -8 -4 -20 -3 -27 1
-6 -2 -14 -7 -17 -11 -7 -346 -11 -358 -4 -5 4 -8 97 -7 222 0 119 0 216 -1
216 0 0 -7 -9 -13 -19z"/>
<path d="M682 1759 c-5 -19 -6 -41 -3 -49 3 -8 9 5 13 29 9 54 3 67 -10 20z"/>
<path d="M1218 2219 c-16 -9 -18 -29 -18 -193 l0 -183 163 -6 c248 -9 381 -51
473 -149 84 -89 122 -219 111 -374 -21 -303 -181 -487 -493 -571 -96 -25 -110
-27 -433 -31 -183 -2 -349 -1 -368 3 -49 9 -83 46 -83 89 0 18 14 110 30 202
17 93 32 181 35 197 l5 27 -191 0 c-201 0 -236 -7 -259 -49 -13 -25 -14 -780
0 -815 6 -17 21 -28 48 -35 26 -7 379 -10 1076 -8 l1038 2 24 30 24 30 0 892
c0 490 -3 899 -6 908 -17 44 -32 45 -611 45 -354 -1 -554 -4 -565 -11z m1146
-45 c14 -14 16 -109 16 -895 0 -885 -1 -909 -34 -931 -6 -4 -481 -8 -1056 -8
-930 0 -1048 2 -1068 16 l-22 15 0 394 0 394 22 15 c30 21 388 24 388 4 0 -7
-16 -98 -35 -203 -20 -108 -33 -202 -29 -218 3 -17 19 -36 37 -48 31 -19 48
-20 417 -16 359 3 390 5 465 25 334 92 506 311 506 646 0 169 -30 256 -121
346 -107 108 -286 160 -552 160 l-88 0 0 138 c0 108 3 142 16 160 l15 22 554
0 c490 0 555 -2 569 -16z"/>
<path d="M2352 2090 c0 -14 2 -19 5 -12 2 6 2 18 0 25 -3 6 -5 1 -5 -13z"/>
<path d="M2352 1890 c0 -14 2 -19 5 -12 2 6 2 18 0 25 -3 6 -5 1 -5 -13z"/>
<path d="M2351 1844 c0 -11 3 -14 6 -6 3 7 2 16 -1 19 -3 4 -6 -2 -5 -13z"/>
<path d="M2351 1654 c0 -11 3 -14 6 -6 3 7 2 16 -1 19 -3 4 -6 -2 -5 -13z"/>
<path d="M1966 1590 c3 -14 10 -29 15 -34 14 -16 10 6 -7 34 l-15 25 7 -25z"/>
<path d="M2165 1530 c-82 -10 -156 -19 -164 -19 -9 -1 -11 -9 -6 -28 14 -57 5
-258 -14 -335 -54 -211 -199 -359 -422 -431 -167 -55 -244 -62 -619 -60 -370
2 -379 3 -406 55 -19 36 -17 71 10 216 12 67 21 122 19 122 -2 0 -16 -12 -31
-27 -15 -15 -19 -21 -9 -14 22 17 22 14 -4 -112 -11 -57 -19 -121 -16 -145 6
-55 43 -96 100 -111 43 -11 638 -10 687 1 14 4 51 9 83 13 67 8 211 48 271 75
23 11 48 20 56 22 8 2 17 5 20 8 3 3 29 23 59 45 90 65 162 166 201 281 32 94
34 106 34 249 1 162 5 175 54 169 13 -1 50 2 81 7 31 5 84 12 119 15 71 7 64
20 63 -121 0 -49 -1 -292 -1 -539 -1 -368 -3 -451 -15 -462 -11 -12 -178 -14
-1042 -14 l-1028 0 -2 222 c-1 151 2 227 9 236 6 7 7 12 2 10 -13 -4 -14 1
-14 141 l0 129 31 11 c34 12 216 15 268 5 30 -6 31 -8 26 -48 -4 -38 -4 -38 8
9 l12 50 -165 3 c-158 3 -166 2 -183 -19 -15 -19 -17 -53 -17 -379 0 -197 3
-365 6 -374 6 -14 107 -16 1049 -16 997 0 1043 1 1058 18 15 17 17 72 17 590
0 539 -1 572 -17 571 -10 -1 -85 -9 -168 -19z"/>
<path d="M2425 2111 c-3 -5 -2 -12 3 -15 5 -3 9 1 9 9 0 17 -3 19 -12 6z"/>
<path d="M2425 1140 c0 -388 1 -546 2 -353 2 194 2 512 0 706 -1 193 -2 35 -2
-353z"/>
<path d="M790 1787 c0 -20 -4 -39 -10 -42 -5 -3 -10 -24 -10 -46 0 -25 4 -38
10 -34 6 4 10 12 9 18 -2 7 1 38 5 70 5 32 6 61 2 64 -3 4 -6 -10 -6 -30z"/>
<path d="M757 1643 c-10 -9 -9 -63 1 -63 4 0 8 16 8 35 0 19 -1 35 -1 35 -1 0
-5 -3 -8 -7z"/>
<path d="M1025 1579 c-54 -238 -115 -532 -115 -553 0 -38 19 -71 50 -89 39
-23 279 -24 365 -1 190 49 294 198 296 425 1 104 -24 173 -82 223 -60 51 -95
58 -305 63 l-192 5 -17 -73z m450 -2 c88 -39 119 -96 118 -212 -2 -193 -88
-340 -232 -397 -49 -19 -75 -22 -214 -22 l-159 -1 -29 33 c-16 18 -29 43 -29
56 0 21 102 501 116 549 6 18 18 19 197 15 156 -3 200 -7 232 -21z"/>
<path d="M1325 1549 c-35 -5 -32 -6 23 -8 34 0 79 -8 100 -16 36 -16 82 -52
82 -65 0 -4 -40 -15 -89 -24 -117 -21 -246 -59 -328 -96 -36 -17 -70 -30 -75
-30 -5 0 -2 14 7 30 9 17 14 30 11 30 -2 0 2 30 9 68 12 61 12 96 1 61 -16
-49 -96 -401 -96 -422 0 -14 12 -39 26 -56 l26 -31 141 0 c159 0 192 6 260 50
87 55 139 171 141 310 2 123 -43 182 -151 198 -26 4 -66 4 -88 1z m225 -193
c-1 -111 -39 -214 -101 -270 -63 -59 -115 -76 -232 -77 -177 -1 -186 0 -207
21 -25 25 -25 43 2 161 l22 95 59 28 c103 49 273 98 376 111 25 3 47 8 50 11
13 13 31 -34 31 -80z"/>
<path d="M1075 1539 c-11 -17 1 -21 15 -4 8 9 8 15 2 15 -6 0 -14 -5 -17 -11z"/>
<path d="M735 1560 c-3 -5 -1 -10 4 -10 6 0 11 5 11 10 0 6 -2 10 -4 10 -3 0
-8 -4 -11 -10z"/>
<path d="M729 1540 c0 -3 -2 -13 -4 -22 -2 -10 0 -20 5 -23 12 -8 19 20 9 36
-5 8 -9 12 -10 9z"/>
<path d="M709 1458 c-6 -20 -5 -38 2 -49 7 -12 9 -11 10 1 0 8 2 23 4 33 2 9
-1 17 -6 17 -5 0 -9 -1 -10 -2z"/>
<path d="M1647 1313 c-4 -3 -7 -13 -7 -21 0 -18 13 -7 16 13 2 17 1 18 -9 8z"/>
<path d="M286 1288 c8 -12 124 -10 124 2 0 7 -25 10 -64 8 -36 -1 -62 -6 -60
-10z"/>
<path d="M667 1131 c-4 -17 -3 -21 5 -13 5 5 8 16 6 23 -3 8 -7 3 -11 -10z"/>
<path d="M1580 1090 c0 -5 5 -10 11 -10 5 0 7 5 4 10 -3 6 -8 10 -11 10 -2 0
-4 -4 -4 -10z"/>
<path d="M1575 1060 c-3 -6 1 -7 9 -4 18 7 21 14 7 14 -6 0 -13 -4 -16 -10z"/>
<path d="M1550 1029 c0 -5 -4 -7 -10 -4 -5 3 -10 -1 -10 -9 0 -14 -37 -42 -51
-39 -3 1 -6 -5 -6 -12 0 -10 4 -12 12 -5 7 5 15 7 18 3 4 -3 7 -1 7 6 0 7 5 9
12 5 6 -4 8 -3 4 4 -3 6 5 19 19 30 26 21 32 32 15 32 -5 0 -10 -5 -10 -11z"/>
<path d="M1447 956 c-4 -10 -12 -14 -19 -10 -10 6 -11 4 0 -7 14 -15 37 1 30
22 -3 9 -6 7 -11 -5z"/>
<path d="M2410 351 c0 -5 5 -13 10 -16 6 -3 10 -2 10 4 0 5 -4 13 -10 16 -5 3
-10 2 -10 -4z"/>
<path d="M2390 326 c0 -2 7 -7 16 -10 8 -3 12 -2 9 4 -6 10 -25 14 -25 6z"/>
<path d="M2320 306 c0 -2 9 -6 20 -9 11 -3 18 -1 14 4 -5 9 -34 13 -34 5z"/>
<path d="M2375 300 c4 -6 11 -8 16 -5 14 9 11 15 -7 15 -8 0 -12 -5 -9 -10z"/>
<path d="M843 273 c274 -2 720 -2 990 0 271 1 47 2 -498 2 -545 0 -766 -1
-492 -2z"/>
</g>
</svg>
