<?xml version="1.0" standalone="no"?>
<!DOCTYPE svg PUBLIC "-//W3C//DTD SVG 20010904//EN"
 "http://www.w3.org/TR/2001/REC-SVG-20010904/DTD/svg10.dtd">
<svg version="1.0" xmlns="http://www.w3.org/2000/svg"
 width="600.000000pt" height="600.000000pt" viewBox="0 0 600.000000 600.000000"
 preserveAspectRatio="xMidYMid meet">
<metadata>
Created by potrace 1.10, written by Peter Selinger 2001-2011
</metadata>
<g transform="translate(0.000000,600.000000) scale(0.100000,-0.100000)"
fill="#000000" stroke="none">
<path d="M2925 4386 c-16 -8 -48 -21 -70 -29 -144 -53 -205 -77 -243 -93 -18
-8 -40 -14 -50 -14 -9 0 -26 -7 -36 -15 -11 -8 -29 -15 -41 -15 -11 0 -29 -6
-40 -14 -11 -7 -31 -16 -45 -19 -14 -3 -50 -15 -80 -27 -30 -12 -66 -25 -80
-30 -14 -5 -50 -18 -80 -30 -30 -12 -66 -25 -80 -30 -14 -5 -50 -18 -80 -30
-30 -12 -66 -24 -80 -27 -14 -3 -30 -10 -37 -15 -7 -6 -27 -14 -45 -18 -18 -5
-58 -18 -88 -30 -30 -12 -66 -25 -80 -30 -14 -5 -50 -18 -80 -30 -30 -12 -66
-25 -80 -30 -14 -5 -50 -18 -80 -30 -115 -44 -136 -52 -168 -60 -18 -4 -38
-12 -45 -18 -7 -5 -23 -12 -37 -15 -14 -3 -50 -15 -80 -27 -30 -12 -66 -25
-80 -30 -14 -5 -50 -18 -80 -30 -30 -12 -66 -25 -80 -30 -14 -5 -50 -18 -80
-30 -30 -12 -66 -24 -80 -27 -14 -3 -34 -12 -45 -19 -11 -8 -29 -14 -40 -14
-12 0 -30 -7 -41 -15 -10 -8 -27 -15 -36 -15 -10 0 -32 -6 -50 -14 -18 -8 -53
-22 -78 -31 -25 -10 -62 -24 -83 -33 l-37 -15 2 -266 3 -266 125 -63 c69 -34
134 -61 145 -60 17 3 20 12 23 63 3 49 8 65 29 88 15 15 31 27 36 27 8 0 99
-42 262 -121 33 -16 66 -29 72 -29 20 0 72 -72 90 -125 9 -27 19 -76 22 -108
7 -67 -9 -54 206 -157 131 -63 363 -175 532 -257 51 -25 97 -42 102 -38 6 3
11 26 11 49 0 78 37 136 86 136 10 0 38 -9 63 -21 342 -158 341 -157 386 -228
17 -27 25 -59 30 -112 3 -41 8 -83 10 -95 4 -16 58 -47 228 -132 123 -62 230
-112 238 -112 8 0 68 26 134 59 66 32 179 87 250 121 72 34 198 95 280 135 83
40 209 101 280 135 72 34 198 95 280 135 83 40 209 101 280 135 72 34 198 95
280 135 191 92 371 179 533 256 70 33 134 65 142 70 8 5 22 12 30 15 8 3 58
27 110 53 l95 47 3 265 2 266 -42 18 c-24 9 -61 24 -83 32 -22 8 -55 21 -73
29 -18 8 -40 14 -50 14 -9 0 -26 7 -36 15 -11 8 -29 15 -41 15 -11 0 -29 6
-40 14 -11 7 -31 16 -45 19 -14 3 -50 15 -80 27 -30 12 -66 25 -80 30 -14 5
-50 18 -80 30 -30 12 -66 25 -80 30 -14 5 -50 18 -80 30 -30 12 -66 24 -80 27
-14 3 -30 10 -37 15 -7 6 -27 14 -45 18 -18 5 -58 18 -88 30 -74 28 -130 49
-160 60 -14 5 -50 18 -80 30 -30 12 -66 25 -80 30 -14 5 -50 18 -80 30 -30 12
-70 25 -88 30 -18 4 -38 12 -45 18 -7 5 -23 12 -37 15 -14 3 -50 15 -80 27
-30 12 -66 25 -80 30 -14 5 -50 18 -80 30 -30 12 -66 25 -80 30 -14 5 -50 18
-80 30 -30 12 -66 24 -80 27 -14 3 -34 12 -45 19 -11 8 -29 14 -40 14 -11 0
-29 6 -40 14 -11 7 -31 16 -45 19 -24 5 -38 10 -160 57 -30 12 -66 25 -80 30
-14 5 -50 18 -80 31 -69 27 -126 33 -165 15z m348 -164 c19 -20 13 -32 -14
-32 -10 0 -33 -6 -51 -14 -18 -8 -53 -22 -78 -31 -25 -9 -58 -23 -73 -31 -16
-8 -35 -14 -42 -14 -7 0 -26 -6 -42 -14 -15 -8 -47 -22 -70 -30 -59 -22 -115
-43 -165 -62 -24 -9 -61 -23 -83 -31 -22 -8 -53 -21 -68 -29 -16 -8 -37 -14
-47 -14 -10 0 -21 -4 -25 -10 -3 -5 -20 -14 -38 -19 -32 -10 -66 -22 -167 -61
-89 -35 -120 -42 -151 -35 -29 7 -41 35 -14 35 8 0 29 6 47 14 31 13 53 22
158 61 22 8 58 22 80 30 79 30 125 48 155 60 17 7 49 20 73 29 23 9 60 23 82
31 22 8 58 22 80 30 22 8 59 22 83 31 23 8 55 22 70 30 16 8 37 14 47 14 10 0
21 4 25 10 3 5 20 14 38 19 18 5 55 18 82 29 64 26 88 26 108 4z m461 -163
c10 -9 -62 -43 -194 -94 -25 -9 -58 -23 -75 -30 -16 -7 -50 -20 -75 -30 -25
-9 -58 -23 -75 -30 -16 -7 -48 -19 -70 -28 -40 -15 -119 -46 -270 -107 -44
-18 -98 -39 -120 -47 -22 -9 -53 -21 -70 -29 -104 -45 -144 -56 -179 -50 -20
4 -36 13 -36 20 0 12 22 24 120 61 25 9 59 23 75 30 30 12 83 33 160 62 22 9
54 21 70 28 17 7 48 20 70 28 62 23 127 48 160 62 17 7 50 21 75 30 25 9 59
23 75 30 32 13 95 38 160 62 22 8 49 20 60 25 48 26 115 29 139 7z m434 -165
c25 -7 30 -34 6 -34 -9 0 -28 -6 -42 -14 -15 -8 -63 -29 -107 -46 -44 -18 -95
-39 -112 -46 -18 -8 -48 -20 -65 -28 -18 -7 -69 -28 -113 -46 -44 -18 -96 -39
-115 -48 -19 -8 -48 -20 -65 -27 -16 -6 -46 -19 -65 -27 -19 -9 -55 -23 -80
-33 -25 -10 -60 -24 -77 -32 -18 -7 -49 -20 -68 -28 -19 -8 -51 -22 -70 -30
-19 -8 -51 -22 -71 -32 -32 -15 -39 -16 -62 -3 -32 19 -39 38 -15 46 10 3 32
11 48 18 17 8 50 21 75 31 25 10 60 24 78 31 17 8 47 20 65 28 17 7 52 21 77
31 51 20 90 36 140 57 19 9 55 23 80 33 25 10 61 24 80 33 50 21 89 37 140 57
53 21 92 37 140 58 137 59 152 63 198 51z m-2144 -130 c29 -11 19 -42 -16 -53
-18 -5 -58 -19 -88 -31 -30 -12 -67 -25 -81 -30 -14 -4 -34 -12 -45 -18 -18
-10 -69 -30 -144 -57 -19 -7 -54 -20 -77 -29 -24 -9 -62 -23 -85 -32 -24 -9
-56 -22 -73 -29 -16 -7 -49 -20 -72 -29 -81 -30 -128 -48 -163 -61 -63 -23
-124 -47 -155 -60 -16 -7 -50 -20 -75 -30 -25 -9 -60 -23 -78 -31 -43 -19 -56
-18 -76 5 -19 21 -14 41 9 41 8 0 29 6 47 14 34 15 98 39 158 61 19 7 53 19
75 28 22 8 58 21 80 30 22 8 58 21 80 30 22 8 60 23 85 32 55 21 112 43 165
62 22 8 53 21 68 29 16 8 35 14 42 14 7 0 26 6 42 14 15 8 48 22 73 31 70 27
121 46 165 62 22 8 54 21 70 28 35 16 47 17 69 9z m2618 -50 c34 -18 31 -23
-32 -49 -25 -10 -73 -31 -108 -47 -34 -15 -66 -28 -71 -28 -5 0 -22 -6 -38
-14 -15 -8 -45 -22 -65 -30 -21 -9 -55 -24 -75 -33 -57 -25 -105 -45 -138 -59
-16 -6 -46 -19 -65 -27 -19 -8 -51 -21 -70 -29 -19 -8 -53 -23 -75 -32 -22
-10 -55 -24 -73 -32 -36 -15 -82 -35 -140 -60 -20 -8 -50 -22 -65 -30 -34 -16
-113 -19 -122 -3 -8 12 22 49 39 49 9 0 353 143 476 198 38 17 86 37 137 59
18 7 50 21 70 30 59 26 105 45 141 60 45 18 97 40 135 56 99 43 96 43 139 21z
m-2164 -147 c23 -25 20 -37 -9 -37 -10 0 -35 -7 -56 -16 -64 -28 -96 -41 -143
-59 -25 -10 -58 -23 -75 -30 -16 -7 -50 -21 -75 -30 -25 -10 -58 -23 -75 -30
-16 -7 -50 -21 -75 -30 -25 -10 -58 -23 -75 -30 -16 -7 -50 -21 -75 -30 -25
-10 -58 -23 -75 -30 -16 -7 -50 -21 -75 -30 -25 -10 -58 -23 -75 -30 -16 -7
-50 -21 -75 -30 -25 -10 -58 -23 -75 -30 -16 -7 -50 -21 -75 -30 -25 -10 -55
-22 -66 -27 -24 -11 -94 9 -94 27 0 5 21 18 48 28 26 11 61 25 77 32 17 7 50
21 75 30 25 9 58 23 73 31 16 8 35 14 42 14 7 0 26 6 42 14 15 8 48 22 73 31
25 10 59 23 75 30 17 7 50 21 75 30 25 9 59 23 75 30 30 12 77 31 158 61 23 9
56 22 72 29 30 12 83 33 160 62 43 17 79 32 135 56 48 22 63 21 88 -6z m2661
-36 l24 -18 -49 -22 c-77 -36 -124 -57 -274 -123 -25 -10 -60 -26 -77 -34 -18
-8 -48 -20 -65 -28 -18 -8 -64 -29 -103 -46 -38 -17 -83 -37 -100 -44 -32 -13
-61 -26 -168 -75 -37 -17 -69 -31 -72 -31 -6 0 -123 -53 -172 -78 -31 -16 -35
-15 -68 2 -39 21 -44 34 -17 42 9 3 31 12 47 19 17 8 60 28 98 44 37 17 69 31
72 31 3 0 35 14 72 31 86 38 125 55 166 73 69 30 104 46 172 76 39 17 84 37
100 44 36 15 87 37 135 59 19 9 64 29 100 45 36 15 76 33 90 39 36 17 62 15
89 -6z m-2200 -150 l24 -19 -48 -21 c-26 -11 -52 -21 -57 -21 -6 0 -22 -6 -36
-14 -15 -8 -47 -22 -72 -31 -42 -17 -64 -25 -142 -59 -18 -7 -69 -28 -113 -46
-90 -36 -125 -51 -175 -72 -19 -9 -55 -23 -80 -33 -42 -17 -65 -26 -142 -59
-18 -7 -69 -28 -113 -46 -93 -38 -133 -54 -177 -75 -49 -23 -90 -28 -122 -15
-28 10 -28 11 -11 30 10 11 27 22 39 25 11 4 35 12 51 20 17 7 66 28 110 45
44 17 94 37 110 45 17 7 50 20 75 30 25 10 61 24 80 33 50 21 89 37 140 57 25
10 59 23 75 30 17 8 66 28 110 45 44 17 94 37 110 45 17 7 50 20 75 30 25 10
60 24 78 31 17 8 47 20 65 28 17 7 43 18 57 24 37 16 62 14 89 -7z m2659 -288
c-3 -188 -3 -188 -26 -191 -13 -2 -34 4 -47 12 -13 9 -33 16 -43 16 -10 0 -22
4 -27 9 -10 9 -47 24 -148 58 -35 12 -53 14 -70 6 -12 -6 -53 -25 -92 -43 -38
-18 -99 -46 -135 -62 -36 -17 -94 -44 -130 -60 -36 -17 -94 -44 -130 -60 -161
-75 -186 -86 -200 -92 -8 -3 -22 -11 -31 -18 -9 -6 -24 -8 -33 -5 -14 6 -16
18 -14 69 l3 63 81 40 c44 22 109 53 145 68 35 16 93 42 129 59 36 17 93 43
128 59 79 37 174 80 260 120 37 17 94 44 127 59 33 15 89 41 125 57 108 50
114 52 123 37 4 -7 6 -98 5 -201z m-2179 89 c10 -20 -2 -42 -23 -42 -9 0 -312
-126 -541 -225 -16 -7 -46 -20 -65 -28 -19 -8 -53 -23 -75 -33 -22 -9 -53 -23
-70 -30 -16 -6 -47 -19 -67 -28 -21 -9 -53 -23 -73 -32 -19 -8 -50 -21 -70
-30 -19 -8 -51 -21 -70 -29 -19 -8 -50 -21 -67 -29 -90 -38 -96 -39 -133 -22
-20 10 -33 20 -31 24 6 10 58 34 186 87 63 26 130 54 147 61 51 23 100 43 135
58 18 7 51 21 73 31 80 35 102 44 215 90 63 26 129 53 145 60 53 23 104 45
140 60 71 29 111 47 135 60 39 20 97 19 109 -3z m486 -192 c35 -13 24 -27 -44
-57 -31 -13 -76 -33 -101 -45 -67 -30 -100 -45 -150 -66 -45 -20 -139 -62
-195 -87 -16 -8 -50 -23 -75 -33 -25 -11 -72 -32 -105 -47 -33 -15 -73 -33
-90 -40 -16 -7 -61 -28 -100 -45 -38 -17 -83 -38 -100 -45 -76 -33 -124 -55
-176 -79 -70 -32 -99 -33 -129 -1 -22 23 -22 25 -4 30 27 9 114 47 287 124 37
17 69 31 72 31 3 0 35 14 72 31 38 16 82 36 98 43 17 7 46 20 65 29 34 16 109
48 200 89 25 10 61 26 80 35 19 9 49 22 65 29 36 15 124 55 180 80 81 36 107
40 150 24z m465 -477 c0 -114 -4 -204 -9 -208 -5 -3 -27 2 -48 11 -21 9 -51
23 -68 29 -54 23 -109 48 -135 61 -60 30 -94 28 -177 -11 -77 -37 -150 -71
-268 -125 -33 -15 -105 -49 -160 -75 -101 -48 -173 -81 -277 -129 -77 -35 -88
-48 -88 -106 0 -27 -3 -56 -6 -65 -15 -38 -24 15 -24 142 l0 131 48 22 c26 12
76 36 112 52 36 17 92 43 125 58 58 27 76 35 210 95 33 15 88 40 123 56 34 16
91 43 127 59 36 17 95 44 133 61 37 17 94 44 127 59 33 15 89 41 125 57 105
49 114 52 122 39 4 -6 8 -102 8 -213z"/>
</g>
</svg>
