<?xml version="1.0" standalone="no"?>
<!DOCTYPE svg PUBLIC "-//W3C//DTD SVG 20010904//EN"
 "http://www.w3.org/TR/2001/REC-SVG-20010904/DTD/svg10.dtd">
<svg version="1.0" xmlns="http://www.w3.org/2000/svg"
 width="200.000000pt" height="200.000000pt" viewBox="0 0 200.000000 200.000000"
 preserveAspectRatio="xMidYMid meet">
<metadata>
Created by potrace 1.10, written by Peter Selinger 2001-2011
</metadata>
<g transform="translate(0.000000,200.000000) scale(0.100000,-0.100000)"
fill="#ffffff" stroke="none">
<path d="M545 1305 l-440 -163 -3 -91 -3 -91 46 -20 c58 -25 55 -25 55 4 0 39
17 40 88 5 62 -31 68 -37 76 -75 9 -41 10 -42 145 -108 l136 -67 8 31 c10 39
30 39 107 0 62 -31 80 -52 80 -94 0 -22 11 -32 81 -67 l81 -40 447 215 446
216 0 91 0 91 -445 164 c-244 90 -449 164 -455 163 -5 0 -208 -74 -450 -164z
m549 107 c6 -10 -347 -145 -370 -140 -10 1 65 35 167 74 205 80 196 77 203 66z
m154 -57 c-12 -12 -353 -145 -372 -145 -33 0 -13 10 161 80 143 58 231 85 211
65z m142 -64 c-51 -30 -364 -151 -371 -144 -10 10 325 151 361 152 19 0 21 -2
10 -8z m-710 -39 c0 -13 -402 -164 -411 -155 -5 5 83 43 194 85 215 82 217 82
217 70z m877 -18 c-2 -2 -83 -37 -181 -79 -166 -70 -224 -89 -200 -65 17 17
359 158 372 153 7 -3 11 -7 9 -9z m-723 -41 c3 -4 -87 -44 -201 -90 -135 -54
-211 -79 -217 -73 -6 6 0 13 20 20 16 6 106 42 199 80 178 71 187 74 199 63z
m880 -12 c8 -13 -363 -176 -374 -165 -6 6 58 40 173 91 199 89 193 87 201 74z
m-730 -49 c6 -10 -382 -172 -410 -172 -35 0 3 19 196 98 213 88 207 86 214 74z
m882 -160 c-3 -3 -28 5 -56 16 l-50 21 -130 -60 c-71 -32 -131 -59 -134 -59
-14 0 -4 41 12 50 9 6 94 46 187 89 l170 78 3 -65 c2 -35 1 -67 -2 -70z m-726
90 c0 -13 -401 -181 -417 -175 -8 3 -12 7 -10 9 7 8 403 173 415 173 6 1 12
-3 12 -7z m165 -71 c-6 -5 -99 -48 -208 -96 -128 -57 -202 -84 -208 -78 -11
11 361 181 401 182 14 1 20 -3 15 -8z m155 -147 c0 -69 -2 -75 -17 -69 -10 4
-37 15 -60 24 l-41 15 -144 -67 c-125 -58 -144 -70 -149 -94 -5 -21 -7 -16 -8
23 l-1 51 208 95 c114 53 208 97 210 97 1 1 2 -33 2 -75z"/>
</g>
</svg>
